# xmcd
# 
# Track frame offsets:
#     150
#     7999
#     28028
#     46466
#     65865
#     86235
#     101565
#     126487
#     144818
#     163908
#     177031
#     192290
#     212253
#     231390
#     248579
# 
# Disc length: 3399
# 
# Revision: 3
# Processed by: cddbd v1.5.2PL0 Copyright (c) Steve Scherf et al.
# Submitted via: fre:ac v1.0.27
# 
DISCID=ce0d450f
DTITLE=西野 カナ - LOVE it
DYEAR=2017
DGENRE=J-POP
TTITLE0=01-＊Prologue＊ ～Humming～
TTITLE1=02-パッ
TTITLE2=03-We're the miracles
TTITLE3=04-Girls
TTITLE4=05-Happy Time
TTITLE5=06-Best Friends Forever
TTITLE6=07-Dear Bride
TTITLE7=08-君が好き Rearrange Ver.
TTITLE8=09-Liar
TTITLE9=10-MEOW
TTITLE10=11-スマホ
TTITLE11=12-One More Time
TTITLE12=13-手をつなぐ理由
TTITLE13=14-LOVE
TTITLE14=15-＊Epilogue＊ ～LOVE it～
EXTD=YEAR: 2017
EXTT0=
EXTT1=
EXTT2=
EXTT3=
EXTT4=
EXTT5=
EXTT6=
EXTT7=
EXTT8=
EXTT9=
EXTT10=
EXTT11=
EXTT12=
EXTT13=
EXTT14=
PLAYORDER=
